<svg xml:space="preserve" style="enable-background:new 0 0 11338.56 3613.68;" viewBox="0 0 11338.56 3613.68" y="0px" x="0px" xmlns:xlink="http://www.w3.org/1999/xlink" xmlns="http://www.w3.org/2000/svg" version="1.1">
<style type="text/css">
	.st0{enable-background:new    ;}
	.st1{fill-rule:evenodd;clip-rule:evenodd;fill:currentColor;}
	.st2{fill:currentColor;}
</style>
<g class="st0" id="_x2E__1_">
	<g id="_x2E_">
		<g>
			<path d="M11198.11,2475.93c-35.02-34.97-78.46-52.48-130.36-52.48c-51.95,0-95.39,17.51-130.36,52.48
				c-35.02,35.02-52.48,78.46-52.48,130.36c0,51.95,17.46,95.39,52.48,130.36c34.97,34.97,78.4,52.48,130.36,52.48
				c51.9,0,95.33-17.51,130.36-52.48c34.97-34.97,52.48-78.4,52.48-130.36C11250.59,2554.38,11233.08,2510.95,11198.11,2475.93z" class="st1"></path>
		</g>
	</g>
</g>
<g class="st0" id="jitrois_1_">
	<g id="jitrois">
		<g>
			<path d="M568.09,1128.23c71.09,0,128.71,5.74,172.86,17.07c44.08,11.4,78.23,34.88,102.44,70.42
				c24.14,35.61,40.55,85.36,49.08,149.39c8.54,64.02,12.8,150.12,12.8,258.22v1135.33c0,133.71-7.87,243.95-23.47,330.78
				c-15.67,86.76-37.75,155.05-66.16,204.87c-28.48,49.75-60.49,83.9-96.03,102.44c-35.61,18.47-74.69,27.74-117.38,27.74
				c-76.83,0-129.51-17.07-157.92-51.22c-28.48-34.15-51.22-72.56-68.29-115.24c-17.07-42.68-35.55-81.1-55.49-115.24
				c-19.87-34.15-58.29-51.22-115.24-51.22c-39.81,0-70.42,12.07-91.77,36.28c-21.34,24.14-32.01,53.35-32.01,87.5
				s10.67,71.83,32.01,113.11c21.34,41.21,53.35,79.63,96.03,115.24c42.68,35.55,95.37,64.69,157.92,87.5
				c62.55,22.74,133.71,34.15,213.41,34.15c82.5,0,161.46-15.67,236.88-46.95c75.36-31.34,141.52-79.69,198.47-145.12
				c56.89-65.49,103.1-148.72,138.71-249.69c35.55-101.04,53.35-222.68,53.35-364.93V931.89l-640.22,106.7V1128.23z M1054.66,133.74
				c-51.22,0-95.37,18.54-132.31,55.49c-37.01,37.01-55.49,81.09-55.49,132.31c0,54.09,18.47,99.64,55.49,136.58
				c36.95,37.01,81.09,55.49,132.31,55.49c51.22,0,95.3-18.47,132.31-55.49c36.95-36.95,55.49-82.5,55.49-136.58
				c0-51.22-18.54-95.3-55.49-132.31C1149.96,152.28,1105.88,133.74,1054.66,133.74z M2435.39,2246.48
				c-24.21-36.95-40.55-88.16-49.08-153.65c-8.54-65.42-12.8-150.79-12.8-256.09V931.89l-640.22,106.7v89.63
				c71.09,0,128.71,5.74,172.86,17.07c44.08,11.4,78.23,34.88,102.44,70.42c24.14,35.61,40.55,85.36,49.08,149.39
				c8.54,64.02,12.8,150.12,12.8,258.22v213.41c0,105.3-4.27,190.67-12.8,256.09c-8.54,65.49-24.94,116.71-49.08,153.65
				c-24.21,37.01-58.35,61.22-102.44,72.56c-44.15,11.4-101.77,17.07-172.86,17.07v89.63h977.41v-89.63
				c-71.16,0-128.78-5.67-172.86-17.07C2493.68,2307.71,2459.53,2283.5,2435.39,2246.48z M2219.85,513.61
				c51.22,0,95.3-18.47,132.31-55.49c36.95-36.95,55.49-82.5,55.49-136.58c0-51.22-18.54-95.3-55.49-132.31
				c-37.01-36.95-81.09-55.49-132.31-55.49c-51.22,0-95.37,18.54-132.31,55.49c-37.01,37.01-55.49,81.09-55.49,132.31
				c0,54.09,18.47,99.64,55.49,136.58C2124.48,495.14,2168.63,513.61,2219.85,513.61z M3628.32,2314.78
				c-68.29,0-117.37-26.28-147.25-78.96c-29.88-52.62-44.82-128.71-44.82-228.35v-853.63h371.33v-149.39h-371.33v-469.5h-145.12
				c-14.27,139.45-49.08,253.29-104.57,341.45c-55.49,88.23-147.25,146.58-275.3,174.99v102.44h221.94v853.63
				c0,165.06,36.28,285.97,108.84,362.79c72.56,76.83,168.59,115.24,288.1,115.24c71.09,0,148.65-22.07,232.61-66.16
				c83.9-44.08,155.79-103.1,215.54-177.13l-72.56-72.56C3803.32,2266.42,3710.82,2314.78,3628.32,2314.78z M5557.52,1023.66
				c-28.48-27.01-63.36-49.08-104.57-66.16c-41.28-17.07-91.77-25.61-151.52-25.61c-85.36,0-170.73,29.88-256.09,89.63
				c-85.36,59.75-149.39,132.31-192.07,217.68c-2.87-22.74-7.14-49.75-12.8-81.1c-5.74-31.28-12.14-61.89-19.21-91.77
				c-7.14-29.88-14.27-56.89-21.34-81.1c-7.14-24.14-13.54-41.95-19.21-53.35l-567.67,106.7v89.63c71.09,0,128.71,5.74,172.86,17.07
				c44.08,11.4,78.23,34.88,102.44,70.42c24.14,35.61,40.55,85.36,49.08,149.39c8.54,64.02,12.8,150.12,12.8,258.22v213.41
				c0,105.3-4.27,190.67-12.8,256.09c-8.54,65.49-24.94,116.71-49.08,153.65c-24.21,37.01-58.35,61.22-102.44,72.56
				c-44.15,11.4-101.77,17.07-172.86,17.07v89.63h977.41v-89.63c-71.16,0-128.78-5.67-172.86-17.07
				c-44.15-11.34-78.29-35.55-102.44-72.56c-24.21-36.95-40.55-88.16-49.08-153.65c-8.54-65.42-12.8-150.79-12.8-256.09v-234.75
				c0-85.36,12.8-159.32,38.41-221.94c25.61-62.56,55.49-114.51,89.63-155.79c34.15-41.21,69.69-71.83,106.7-91.77
				c36.95-19.87,68.29-29.88,93.9-29.88c91.03,0,136.58,46.95,136.58,140.85c0,39.88,14.94,75.43,44.82,106.7
				c29.88,31.34,64.69,46.95,104.57,46.95c65.42,0,110.24-21.34,134.45-64.02c24.14-42.68,36.28-88.16,36.28-136.58
				c0-25.61-6.4-54.02-19.21-85.36C5606.6,1079.88,5585.93,1050.73,5557.52,1023.66z M7403.46,1160.24
				c-78.29-69.69-169.33-125.18-273.16-166.46c-103.9-41.21-215.54-61.89-335.05-61.89c-119.51,0-231.21,20.67-335.05,61.89
				c-103.9,41.28-194.94,96.77-273.16,166.46c-78.29,69.76-140.18,152.25-185.66,247.55c-45.55,95.37-68.29,197.07-68.29,305.17
				c0,108.17,22.74,209.87,68.29,305.17c45.48,95.37,107.37,178.6,185.66,249.69c78.23,71.16,169.26,127.38,273.16,168.59
				c103.84,41.21,215.54,61.89,335.05,61.89c119.51,0,231.15-20.67,335.05-61.89c103.84-41.21,194.87-97.43,273.16-168.59
				c78.23-71.09,140.12-154.32,185.67-249.69c45.48-95.3,68.29-197,68.29-305.17c0-108.1-22.81-209.81-68.29-305.17
				C7543.57,1312.49,7481.68,1229.99,7403.46,1160.24z M7281.81,1954.12c-19.94,75.43-51.22,140.85-93.9,196.34
				c-42.68,55.49-96.77,99.64-162.19,132.31c-65.49,32.75-142.32,49.08-230.48,49.08c-88.23,0-164.32-16.34-228.35-49.08
				c-64.02-32.68-117.37-76.83-160.06-132.31s-74.69-120.91-96.03-196.34c-21.34-75.36-32.01-155.79-32.01-241.15
				c0-85.36,10.67-165.72,32.01-241.15c21.34-75.36,53.35-140.85,96.03-196.34c42.68-55.49,96.03-99.57,160.06-132.31
				c64.02-32.68,140.12-49.08,228.35-49.08c88.16,0,164.99,16.41,230.48,49.08c65.42,32.74,119.51,76.83,162.19,132.31
				c42.68,55.49,73.96,120.98,93.9,196.34c19.87,75.43,29.88,155.79,29.88,241.15C7311.69,1798.33,7301.69,1878.76,7281.81,1954.12z
				 M8511.04,513.61c51.22,0,95.3-18.47,132.31-55.49c36.95-36.95,55.49-82.5,55.49-136.58c0-51.22-18.54-95.3-55.49-132.31
				c-37.01-36.95-81.09-55.49-132.31-55.49c-51.22,0-95.37,18.54-132.31,55.49c-37.01,37.01-55.49,81.09-55.49,132.31
				c0,54.09,18.47,99.64,55.49,136.58C8415.68,495.14,8459.83,513.61,8511.04,513.61z M8726.59,2246.48
				c-24.21-36.95-40.55-88.16-49.08-153.65c-8.54-65.42-12.8-150.79-12.8-256.09V931.89l-640.22,106.7v89.63
				c71.09,0,128.71,5.74,172.86,17.07c44.08,11.4,78.23,34.88,102.44,70.42c24.14,35.61,40.55,85.36,49.08,149.39
				c8.54,64.02,12.8,150.12,12.8,258.22v213.41c0,105.3-4.27,190.67-12.8,256.09c-8.54,65.49-24.94,116.71-49.08,153.65
				c-24.21,37.01-58.35,61.22-102.44,72.56c-44.15,11.4-101.77,17.07-172.86,17.07v89.63h977.41v-89.63
				c-71.16,0-128.78-5.67-172.86-17.07C8784.87,2307.71,8750.73,2283.5,8726.59,2246.48z M10265.24,1811.13
				c-51.22-71.09-123.78-133.71-217.68-187.8l-204.87-110.97c-96.77-51.22-164.32-94.57-202.74-130.18
				c-38.41-35.55-57.62-78.96-57.62-130.18c0-54.02,17.74-98.17,53.35-132.31c35.55-34.15,90.3-51.22,164.32-51.22
				c54.02,0,102.44,10,145.12,29.88c42.68,19.94,78.96,46.95,108.84,81.1c29.88,34.15,52.62,72.56,68.29,115.24
				c15.61,42.68,23.48,86.83,23.48,132.31h89.63V931.89h-89.63c0,65.49-8.54,98.17-25.61,98.17c-14.27,0-30.61-4.94-49.08-14.94
				c-18.54-9.94-42.01-21.34-70.42-34.15c-28.48-12.8-61.89-24.14-100.3-34.15c-38.41-9.94-86.1-14.94-142.98-14.94
				c-54.08,0-106.7,9.27-157.92,27.74c-51.22,18.54-97.5,44.82-138.72,78.96c-41.28,34.15-74.03,75.43-98.17,123.78
				c-24.21,48.42-36.28,101.04-36.28,157.92c0,68.29,21.34,142.32,64.02,221.94c42.68,79.69,115.24,147.99,217.68,204.87
				l239.02,128.04c73.96,39.88,132.31,79.69,174.99,119.51c42.68,39.88,64.02,86.83,64.02,140.85c0,59.75-22.81,110.97-68.29,153.65
				c-45.55,42.68-103.9,64.02-174.99,64.02c-76.83,0-143.72-15.61-200.6-46.95c-56.95-31.28-105.3-71.09-145.12-119.51
				c-39.88-48.35-69.76-100.3-89.63-155.79c-19.94-55.49-29.88-107.37-29.88-155.79h-89.63v623.15h89.63
				c0-51.22,4.27-86.76,12.8-106.7c8.54-19.87,22.74-29.88,42.68-29.88c14.21,0,34.15,7.14,59.75,21.34
				c25.61,14.27,55.49,29.88,89.63,46.95c34.15,17.07,72.56,32.68,115.24,46.95c42.68,14.2,88.16,21.34,136.58,21.34
				c68.29,0,133.71-10.67,196.33-32.01c62.56-21.34,116.64-52.62,162.19-93.9c45.48-41.21,81.76-90.3,108.84-147.25
				c27.01-56.89,40.55-120.91,40.55-192.07C10342.07,1956.25,10316.46,1882.29,10265.24,1811.13z" class="st2"></path>
		</g>
	</g>
</g>
</svg>
